<svg viewBox="0 0 350 74" fill="none" xmlns="http://www.w3.org/2000/svg"><path d="M177.974 72.534h18.925c-1.313-7.416-11.046-60.87-13.363-72.225-15.449 2.703-28.195 21.01-29.662 40.631.617 17.998 18.461 30.435 24.1 31.593z" fill="#F0A998"/><path d="M153.796 41.327c-.927 17.844-18.539 30.048-24.178 31.207h48.278c-5.484-1.159-23.174-13.44-24.1-31.207z" fill="#E5CDA0"/><path d="M129.695 72.534H110.77c1.313-7.416 11.046-60.87 13.364-72.225 15.449 2.703 28.194 21.01 29.662 40.631-.618 17.998-18.462 30.435-24.101 31.593zm-28.04-71.22H85.202v71.22h16.453V1.314z" fill="#F0A998"/><path d="M37.387 0c-10.274 0-19.08 3.63-26.34 10.814C3.706 17.998 0 26.573 0 36.614 0 47.43 3.63 56.312 10.892 63.187l52.45-52.45C56.157 3.553 47.505 0 37.386 0z" fill="#E5CDA0"/><path d="M63.342 10.737l-52.45 52.45c.386.386.772.695 1.159 1.081 7.338 6.334 15.603 9.579 24.796 9.579 10.428 0 19.234-3.554 26.572-10.737 7.338-7.107 10.969-15.836 10.969-26.032s-3.63-18.925-10.892-26.11c-.077-.154-.077-.154-.154-.23z" fill="#F0A998"/><path d="M239.847 0c-10.273 0-19.079 3.63-26.34 10.814-7.339 7.184-11.047 15.836-11.047 25.8 0 10.815 3.631 19.698 10.892 26.573l52.45-52.45C258.618 3.553 249.966 0 239.847 0z" fill="#E5CDA0"/><path d="M265.803 10.737l-52.45 52.45c.386.386.772.695 1.159 1.081 7.338 6.334 15.603 9.579 24.796 9.579 10.428 0 19.234-3.554 26.572-10.737 7.338-7.107 10.969-15.836 10.969-26.032s-3.631-18.925-10.969-26.11c0-.154 0-.154-.077-.23zM289.208.696c-.85 0-1.236.077-1.236.077v72.07h46.27V48.588c0-9.501-12.436-47.892-45.034-47.892z" fill="#F0A998"/><path d="M350 1.622h-15.758v71.22H350V1.623z" fill="#E5CDA0"/></svg>